<?xml version="1.0" standalone="no"?><!DOCTYPE svg PUBLIC "-//W3C//DTD SVG 1.1//EN" "http://www.w3.org/Graphics/SVG/1.1/DTD/svg11.dtd"><svg t="1644292286081" class="icon" viewBox="0 0 1024 1024" version="1.1" xmlns="http://www.w3.org/2000/svg" p-id="14225" xmlns:xlink="http://www.w3.org/1999/xlink" width="1024" height="1024"><defs><style type="text/css"></style></defs><path d="M862.646857 828.952381c35.254857 0 63.829333 21.845333 63.829333 48.761905s-28.574476 48.761905-63.829333 48.761904H165.059048c-35.254857 0-63.878095-21.845333-63.878096-48.761904s28.623238-48.761905 63.878096-48.761905z m1.950476-731.428571C898.681905 97.52381 926.47619 126.293333 926.47619 161.987048v500.736c0 35.547429-27.794286 64.463238-61.927619 64.463238H159.451429c-34.133333 0-61.927619-28.91581-61.927619-64.463238V161.987048C97.52381 126.390857 125.318095 97.52381 159.451429 97.52381zM702.171429 241.078857L462.750476 482.742857 335.62819 355.669333l-55.100952 55.100953 156.038095 156.038095c15.993905 15.896381 41.252571 16.579048 56.466286 1.316571l267.020191-269.263238L702.171429 241.078857z" fill="#3DE5D4" p-id="14226"></path></svg>