<?xml version="1.0" standalone="no"?><!DOCTYPE svg PUBLIC "-//W3C//DTD SVG 1.1//EN" "http://www.w3.org/Graphics/SVG/1.1/DTD/svg11.dtd"><svg t="1644202171078" class="icon" viewBox="0 0 1024 1024" version="1.1" xmlns="http://www.w3.org/2000/svg" p-id="3171" xmlns:xlink="http://www.w3.org/1999/xlink" width="1024" height="1024"><defs><style type="text/css"></style></defs><path d="M828.01359 256.289921a40.00906 40.00906 0 0 0 57.984145 0l57.984145-57.984145a40.00906 40.00906 0 0 0 0-57.984145 37.689694 37.689694 0 0 0-17.975085-10.437146 40.00906 40.00906 0 0 0-38.849377 10.437146l-57.984145 57.984145a40.588901 40.588901 0 0 0 0 57.984145zM512 161.195923a40.00906 40.00906 0 0 0 40.00906-40.00906V40.00906a40.00906 40.00906 0 0 0-80.01812 0v80.597962a41.748584 41.748584 0 0 0 11.596829 28.992072 40.588901 40.588901 0 0 0 28.412231 11.596829zM193.087203 846.568516a29.571914 29.571914 0 0 0 28.992072 27.252549h579.84145a29.571914 29.571914 0 0 0 28.992072-28.412231V552.588901a320.652322 320.652322 0 0 0-194.826727-294.559456 317.753114 317.753114 0 0 0-248.17214 0 321.812005 321.812005 0 0 0-194.826727 295.719139z m473.730464-351.963759a30.731597 30.731597 0 0 1 61.463194 0v278.323895a30.731597 30.731597 0 1 1-61.463194 0z m280.06342 436.620611H77.118913c-16.235561 0-28.992072 20.874292-28.992073 46.387316s12.756512 46.387316 28.992073 46.387316h869.762174c16.235561 0 28.992072-20.874292 28.992073-46.387316s-12.756512-46.387316-28.992073-46.387316zM139.741789 256.289921a40.588901 40.588901 0 0 0 67.261609-19.134768 41.168743 41.168743 0 0 0-10.437147-39.429219l-57.984145-57.984145a40.588901 40.588901 0 0 0-52.765571 0 40.00906 40.00906 0 0 0-4.058891 52.765572z" fill="#F29530" p-id="3172"></path></svg>