<?xml version="1.0" standalone="no"?><!DOCTYPE svg PUBLIC "-//W3C//DTD SVG 1.1//EN" "http://www.w3.org/Graphics/SVG/1.1/DTD/svg11.dtd"><svg t="1644202590494" class="icon" viewBox="0 0 1024 1024" version="1.1" xmlns="http://www.w3.org/2000/svg" p-id="13922" xmlns:xlink="http://www.w3.org/1999/xlink" width="1024" height="1024"><defs><style type="text/css"></style></defs><path d="M153.6 0h614.4c56.32 0 102.4 46.08 102.4 102.4v819.2c0 56.32-46.08 102.4-102.4 102.4H153.6c-56.32 0-102.4-46.08-102.4-102.4V102.4C51.2 46.08 97.28 0 153.6 0z" fill="#3296FA" p-id="13923"></path><path d="M588.8 204.8h-307.2c-15.36 0-25.6-10.24-25.6-25.6s10.24-25.6 25.6-25.6h307.2c15.36 0 25.6 10.24 25.6 25.6s-10.24 25.6-25.6 25.6zM512 332.8H281.6c-15.36 0-25.6-10.24-25.6-25.6s10.24-25.6 25.6-25.6H512c15.36 0 25.6 10.24 25.6 25.6s-10.24 25.6-25.6 25.6zM409.6 460.8H281.6c-15.36 0-25.6-10.24-25.6-25.6s10.24-25.6 25.6-25.6H409.6c15.36 0 25.6 10.24 25.6 25.6S424.96 460.8 409.6 460.8z" fill="#FFFFFF" p-id="13924"></path><path d="M824.32 573.44l61.44 61.44c10.24 10.24 10.24 30.72 0 40.96l-15.36 20.48c-10.24 10.24-30.72 10.24-40.96 0l-15.36 10.24 138.24 138.24c10.24 10.24 10.24 20.48 0 30.72l-30.72 25.6c-10.24 10.24-20.48 10.24-30.72 0l-133.12-138.24-10.24 10.24 5.12 5.12c5.12 10.24 5.12 25.6-5.12 40.96l-20.48 15.36c-10.24 15.36-30.72 15.36-40.96 0l-61.44-61.44c-10.24-10.24-10.24-30.72 0-40.96l20.48-20.48c10.24-10.24 30.72-10.24 40.96 0l81.92-81.92h-5.12c-10.24-10.24-10.24-30.72 0-40.96l20.48-20.48c10.24-10.24 30.72-10.24 40.96 5.12z" fill="#EFF6FF" p-id="13925"></path><path d="M645.12 921.6m-51.2 0a51.2 51.2 0 1 0 102.4 0 51.2 51.2 0 1 0-102.4 0Z" fill="#EFF6FF" p-id="13926"></path><path d="M727.04 921.6m-51.2 0a51.2 51.2 0 1 0 102.4 0 51.2 51.2 0 1 0-102.4 0Z" fill="#EFF6FF" p-id="13927"></path><path d="M808.96 921.6m-51.2 0a51.2 51.2 0 1 0 102.4 0 51.2 51.2 0 1 0-102.4 0Z" fill="#EFF6FF" p-id="13928"></path><path d="M824.32 573.44l61.44 61.44c10.24 10.24 10.24 30.72 0 40.96l-15.36 20.48c-10.24 10.24-30.72 10.24-40.96 0l-15.36 10.24 138.24 138.24c10.24 10.24 10.24 20.48 0 30.72l-30.72 25.6c-10.24 10.24-20.48 10.24-30.72 0l-133.12-138.24-10.24 10.24 5.12 5.12c5.12 10.24 5.12 25.6-5.12 40.96l-20.48 15.36c-10.24 15.36-30.72 15.36-40.96 0l-61.44-61.44c-10.24-10.24-10.24-30.72 0-40.96l20.48-20.48c10.24-10.24 30.72-10.24 40.96 0l81.92-81.92h-5.12c-10.24-10.24-10.24-30.72 0-40.96l20.48-20.48c10.24-10.24 30.72-10.24 40.96 5.12z" fill="#EFF6FF" p-id="13929"></path><path d="M645.12 921.6m-51.2 0a51.2 51.2 0 1 0 102.4 0 51.2 51.2 0 1 0-102.4 0Z" fill="#EFF6FF" p-id="13930"></path><path d="M727.04 921.6m-51.2 0a51.2 51.2 0 1 0 102.4 0 51.2 51.2 0 1 0-102.4 0Z" fill="#EFF6FF" p-id="13931"></path><path d="M808.96 921.6m-51.2 0a51.2 51.2 0 1 0 102.4 0 51.2 51.2 0 1 0-102.4 0Z" fill="#EFF6FF" p-id="13932"></path></svg>