<?xml version="1.0" standalone="no"?><!DOCTYPE svg PUBLIC "-//W3C//DTD SVG 1.1//EN" "http://www.w3.org/Graphics/SVG/1.1/DTD/svg11.dtd"><svg t="1644202199037" class="icon" viewBox="0 0 1024 1024" version="1.1" xmlns="http://www.w3.org/2000/svg" p-id="3316" xmlns:xlink="http://www.w3.org/1999/xlink" width="1024" height="1024"><defs><style type="text/css"></style></defs><path d="M858.367344 811.341324h-9.946268V364.646321c0-17.987974-15.616805-32.570215-34.87917-32.570215H556.430075v479.264215H545.569658V187.719753c0-24.94695-21.152878-45.170627-47.244773-45.170627H197.294742c-26.090891 0-47.244773 20.223677-47.244773 45.170627v623.620568h-5.638426c-19.635651 0-35.5555 15.918845-35.5555 35.5555s15.918845 35.556503 35.5555 35.556503H858.367344c19.637658 0 35.556503-15.918845 35.556503-35.556503 0-19.634647-15.918845-35.554496-35.556503-35.554497zM458.743515 660.703329H236.877116c-14.138712 0-25.600201-11.461488-25.600201-25.6002s11.461488-25.600201 25.600201-25.600201h221.867402c14.138712 0 25.600201 11.461488 25.600201 25.600201s-11.462492 25.600201-25.601204 25.6002z m0-155.535869H236.877116c-14.138712 0-25.600201-11.461488-25.600201-25.600201s11.461488-25.600201 25.600201-25.600201h221.867402c14.138712 0 25.600201 11.461488 25.600201 25.600201s-11.462492 25.600201-25.601204 25.600201z m0-150.167374H236.877116c-14.138712 0-25.600201-11.461488-25.600201-25.6002s11.461488-25.600201 25.600201-25.600201h221.867402c14.138712 0 25.600201 11.461488 25.600201 25.600201s-11.462492 25.600201-25.601204 25.6002z m314.29083 305.703243H630.812346c-14.138712 0-25.600201-11.461488-25.600201-25.6002s11.461488-25.600201 25.600201-25.600201h142.221999c14.138712 0 25.600201 11.461488 25.600201 25.600201s-11.461488 25.600201-25.600201 25.6002z m0-155.534866H630.812346c-14.138712 0-25.600201-11.461488-25.600201-25.6002s11.461488-25.600201 25.600201-25.600201h142.221999c14.138712 0 25.600201 11.461488 25.600201 25.600201s-11.461488 25.600201-25.600201 25.6002z" fill="#1890ff" p-id="3317"></path></svg>