<?xml version="1.0" standalone="no"?><!DOCTYPE svg PUBLIC "-//W3C//DTD SVG 1.1//EN" "http://www.w3.org/Graphics/SVG/1.1/DTD/svg11.dtd"><svg t="1644059048904" class="icon" viewBox="0 0 1024 1024" version="1.1" xmlns="http://www.w3.org/2000/svg" p-id="2432" xmlns:xlink="http://www.w3.org/1999/xlink" width="1024" height="1024"><defs><style type="text/css"></style></defs><path d="M512 512m-512 0a512 512 0 1 0 1024 0 512 512 0 1 0-1024 0Z" fill="#67AEF7" p-id="2433"></path><path d="M655.140571 742.198857H368.859429c-47.085714 0-85.394286-35.913143-85.394286-80.073143V368.603429c0-44.141714 38.308571-80.073143 85.394286-80.073143h209.664c9.252571 0 16.713143 7.04 16.713142 15.670857s-7.460571 15.762286-16.713142 15.762286H368.859429c-28.598857 0-51.894857 21.851429-51.894858 48.676571v293.522286c0 26.825143 23.296 48.676571 51.894858 48.676571h286.281142c28.598857 0 51.894857-21.851429 51.894858-48.676571V368.603429c0-26.825143-23.296-48.676571-51.894858-48.676572h-205.714285c-9.252571 0-16.713143-7.04-16.713143-15.670857s7.497143-15.670857 16.713143-15.670857h205.714285c47.085714 0 85.394286 35.913143 85.394286 80.073143v293.522285c-0.054857 44.141714-38.326857 80.018286-85.394286 80.018286z" fill="#FFFFFF" p-id="2434"></path><path d="M717.293714 424.630857H306.742857c-7.405714 0-13.403429-5.394286-13.403428-12.342857s5.997714-12.324571 13.403428-12.324571h410.496c7.405714 0 13.403429 5.394286 13.403429 12.342857s-5.979429 12.324571-13.348572 12.324571zM442.24 372.114286h-63.122286c-7.405714 0-13.403429-5.394286-13.403428-12.342857s5.997714-12.342857 13.403428-12.342858h63.067429c7.405714 0 13.403429 5.394286 13.403428 12.342858s-5.997714 12.342857-13.348571 12.342857zM643.382857 372.114286h-63.122286c-7.405714 0-13.403429-5.394286-13.403428-12.342857s5.997714-12.342857 13.403428-12.342858h63.067429c7.405714 0 13.403429 5.394286 13.403429 12.342858s-5.997714 12.342857-13.348572 12.342857zM567.68 489.124571c-18.413714 32.146286-32.877714 61.897143-43.410286 89.252572-10.532571 27.355429-17.042286 51.474286-19.529143 72.374857H481.645714c2.797714-20.608 9.398857-44.105143 19.803429-70.509714s24.338286-54.820571 41.764571-85.229715h-86.893714V475.428571h111.378286l-0.018286 13.696z" fill="#FFFFFF" p-id="2435"></path></svg>