<?xml version="1.0" standalone="no"?><!DOCTYPE svg PUBLIC "-//W3C//DTD SVG 1.1//EN" "http://www.w3.org/Graphics/SVG/1.1/DTD/svg11.dtd"><svg t="1644202154382" class="icon" viewBox="0 0 1024 1024" version="1.1" xmlns="http://www.w3.org/2000/svg" p-id="3023" xmlns:xlink="http://www.w3.org/1999/xlink" width="1024" height="1024"><defs><style type="text/css"></style></defs><path d="M136.92928 212.33664h116.66432v40.23296H136.92928v-40.23296z m0 79.45216h116.66432v40.23296H136.92928v-40.2432z m0 84.48h116.66432v40.23296H136.92928v-40.2432z" fill="#49d9fe" p-id="3024"></path><path d="M269.68064 128.86016H120.84224a64.36864 64.36864 0 0 0-64.36864 64.36864v643.65568a64.36864 64.36864 0 0 0 64.36864 64.36864h148.8384a64.36864 64.36864 0 0 0 64.36864-64.36864V193.2288a64.36864 64.36864 0 0 0-64.36864-64.36864zM195.59424 827.4944a66.37568 66.37568 0 1 1 0-132.75136 66.37568 66.37568 0 0 1 0 132.75136z m98.22208-240.0256a32.18432 32.18432 0 0 1-32.17408 32.18432H128.88064a32.18432 32.18432 0 0 1-32.18432-32.18432V201.27744a32.18432 32.18432 0 0 1 32.18432-32.18432h132.7616a32.18432 32.18432 0 0 1 32.17408 32.18432V587.4688z m154.88-375.13216h116.66432v40.23296H448.69632v-40.23296z m0 79.45216h116.66432v40.23296H448.69632v-40.2432z m0 84.48h116.66432v40.23296H448.69632v-40.2432z" fill="#49d9fe" p-id="3025"></path><path d="M581.45792 128.86016H432.60928a64.36864 64.36864 0 0 0-64.36864 64.36864v643.65568a64.36864 64.36864 0 0 0 64.36864 64.36864h148.84864a64.36864 64.36864 0 0 0 64.3584-64.36864V193.2288a64.36864 64.36864 0 0 0-64.3584-64.36864zM507.37152 827.4944a66.37568 66.37568 0 1 1 0-132.75136 66.37568 66.37568 0 0 1 0 132.75136z m98.22208-240.0256a32.18432 32.18432 0 0 1-32.18432 32.18432H440.65792a32.18432 32.18432 0 0 1-32.18432-32.18432V201.27744a32.18432 32.18432 0 0 1 32.18432-32.18432h132.75136a32.18432 32.18432 0 0 1 32.18432 32.18432V587.4688z m154.88-375.13216h116.66432v40.23296H760.4736v-40.23296z m0 79.45216h116.66432v40.23296H760.4736v-40.2432z m0 84.48h116.66432v40.23296H760.4736v-40.2432z" fill="#49d9fe" p-id="3026"></path><path d="M893.2352 128.86016H744.36608a64.36864 64.36864 0 0 0-64.3584 64.36864v643.65568a64.36864 64.36864 0 0 0 64.3584 64.36864H893.2352a64.36864 64.36864 0 0 0 64.36864-64.36864V193.2288a64.36864 64.36864 0 0 0-64.36864-64.36864zM819.12832 827.4944a66.37568 66.37568 0 1 1 0-132.75136 66.37568 66.37568 0 0 1 0 132.75136z m98.22208-240.0256a32.18432 32.18432 0 0 1-32.18432 32.18432H752.4352a32.18432 32.18432 0 0 1-32.18432-32.18432V201.27744a32.18432 32.18432 0 0 1 32.18432-32.18432h132.75136a32.18432 32.18432 0 0 1 32.18432 32.18432V587.4688z" fill="#49d9fe" p-id="3027"></path></svg>