<?xml version="1.0" standalone="no"?><!DOCTYPE svg PUBLIC "-//W3C//DTD SVG 1.1//EN" "http://www.w3.org/Graphics/SVG/1.1/DTD/svg11.dtd"><svg t="1644059035726" class="icon" viewBox="0 0 1024 1024" version="1.1" xmlns="http://www.w3.org/2000/svg" p-id="2142" xmlns:xlink="http://www.w3.org/1999/xlink" width="1024" height="1024"><defs><style type="text/css"></style></defs><path d="M511.999795 0.000819A511.015938 511.015938 0 0 0 0.000819 511.999795C0.000819 795.647228 231.137637 1023.998771 511.999795 1023.998771A511.015938 511.015938 0 0 0 1023.998771 511.999795C1023.998771 228.516202 792.943873 0.000819 511.999795 0.000819z m333.413733 666.868426a39.567281 39.567281 0 0 1-36.659126 23.633873c-5.324789 0-10.567659 0-15.810529-2.580475l-301.956516-136.519407a41.205678 41.205678 0 0 1-23.633873-36.782006V231.055717c0-20.971478 18.431963-39.321521 39.444402-39.321521 20.971478 0 39.321521 18.350043 39.321521 39.321521v259.93164l278.363603 126.074628c20.971478 7.864304 28.876742 28.835782 20.971478 49.80726z" fill="#50C8C7" p-id="2143"></path></svg>