<?xml version="1.0" standalone="no"?><!DOCTYPE svg PUBLIC "-//W3C//DTD SVG 1.1//EN" "http://www.w3.org/Graphics/SVG/1.1/DTD/svg11.dtd"><svg t="1644059053382" class="icon" viewBox="0 0 1024 1024" version="1.1" xmlns="http://www.w3.org/2000/svg" p-id="2579" xmlns:xlink="http://www.w3.org/1999/xlink" width="1024" height="1024"><defs><style type="text/css"></style></defs><path d="M445.7 528.7h150.6v31.4H445.7z" fill="#9364FD" p-id="2580"></path><path d="M724.3 333.4h-60.7v13.5c0 18.6-15.1 33.7-33.7 33.7s-33.7-15.1-33.7-33.7v-13.5H427.8v13.5c0 18.6-15.1 33.7-33.7 33.7s-33.7-15.1-33.7-33.7v-13.5h-60.7c-7.4 0-13.5 6-13.5 13.5V721c0 9.3 6 16.8 13.5 16.8h424.6c7.4 0 13.5-7.5 13.5-16.8V346.9c0-7.4-6.1-13.5-13.5-13.5z m-95.6 303.5c1.2 10.3-0.9 18.9-6.4 25-5.8 6.5-15.2 9.8-27.8 9.8-12.2 0-27.3-2.9-46.4-8.8-8.3-3.1-12.3-9.8-11.3-18.6 0.1-0.7 0.3-1.4 0.6-2 2.1-4.3 6.9-9.4 17.6-9.4 23.5 5.1 32.6 6.2 36.3 6.2 0.3 0 1.9-0.1 2.1-0.1 2.2 0 2.8-0.5 2.8-0.5l0.2-46H445.3c-2.4 27.2-8.3 49.9-17.4 67.5-5.5 9.2-12 11-16.5 11-1.9 0-3.9-0.3-6-1-9.8-5.3-12.6-13.6-8.8-23.2 9.9-19.1 15.1-44.8 15.7-76.7V464c0.8-18 10.6-28.7 27.7-30.3h158.3c18.8 0.8 29.5 11.1 30.3 29v174.2z" fill="#9364FD" p-id="2581"></path><path d="M512 0C229.2 0 0 229.2 0 512s229.2 512 512 512 512-229.2 512-512S794.8 0 512 0z m293.2 724.3c0 44.6-36.3 80.9-80.9 80.9H299.7c-44.6 0-80.9-36.3-80.9-80.9V346.9c0-44.6 36.3-80.9 80.9-80.9h60.7v-13.5c0-18.6 15.1-33.7 33.7-33.7s33.7 15.1 33.7 33.7V266h168.5v-13.5c0-9 3.5-17.5 9.9-23.8 6.4-6.4 14.8-9.9 23.8-9.9 18.6 0 33.7 15.1 33.7 33.7V266h60.7c44.6 0 80.9 36.3 80.9 80.9v377.4z" fill="#9364FD" p-id="2582"></path><path d="M450.1 466.1c-3.4 0.4-4.4 1.5-4.4 5.1v26.3h150.6v-28.3c0-2.4-0.5-3.1-0.5-3.1H450.1z" fill="#9364FD" p-id="2583"></path></svg>