<?xml version="1.0" standalone="no"?><!DOCTYPE svg PUBLIC "-//W3C//DTD SVG 1.1//EN" "http://www.w3.org/Graphics/SVG/1.1/DTD/svg11.dtd"><svg t="1644202147855" class="icon" viewBox="0 0 1024 1024" version="1.1" xmlns="http://www.w3.org/2000/svg" p-id="2878" xmlns:xlink="http://www.w3.org/1999/xlink" width="1024" height="1024"><defs><style type="text/css"></style></defs><path d="M156.750769 146.510769h713.019077c24.576 0 44.583385-17.486769 44.583385-38.754461s-20.007385-38.596923-44.583385-38.596923H156.750769c-24.576 0-44.504615 17.486769-44.504615 38.754461s19.928615 38.596923 44.504615 38.596923z m273.801846 351.468308l-6.222769 3.938461h7.876923l-1.654154-3.938461z m509.479385-273.880615H83.968a43.953231 43.953231 0 0 0-44.583385 43.165538v644.332308c0 23.867077 20.086154 43.165538 44.583385 43.165538h856.064c24.260923 0.315077 44.110769-18.904615 44.583385-43.165538v-644.332308a44.110769 44.110769 0 0 0-44.583385-43.165538zM703.409231 667.884308c0 21.110154-20.086154 38.596923-44.583385 38.596923H552.014769v93.735384c0 23.788308-18.116923 43.165538-39.936 43.165539-21.897846 0-40.014769-19.377231-40.014769-43.165539V706.796308H365.331692c-24.576 0-44.504615-17.486769-44.504615-38.754462 0-21.110154 20.086154-38.675692 44.504615-38.675692h106.732308v-55.532308H365.331692c-24.576 0-44.504615-17.329231-44.504615-38.754461 0-21.188923 20.086154-38.675692 44.504615-38.675693h59.076923l-21.819077-40.408615-25.993846-47.970462c-11.342769-21.031385-4.726154-46.316308 14.651077-56.24123 19.456-10.003692 44.819692-0.787692 56.162462 20.164923l20.952615 38.518154c0.393846 0.551385 0.787692 1.260308 0.945231 1.890461l21.504 39.542154 21.740308 40.014769 21.740307-40.093538 21.661539-39.542154c0.315077-0.551385 0.787692-1.181538 0.945231-1.732923l20.716307-38.439385c11.421538-21.031385 36.706462-30.247385 56.162462-20.243692 19.456 9.846154 26.151385 35.209846 14.651077 56.241231l-25.915077 47.891692-21.897846 40.408615h57.816615c24.576 0 44.740923 17.329231 44.740923 38.596923s-20.086154 38.833231-44.504615 38.833231H551.936v55.532308h106.732308c24.654769-0.078769 44.662154 17.329231 44.662154 38.518154z" fill="#C263EF" p-id="2879"></path></svg>