<?xml version="1.0" standalone="no"?><!DOCTYPE svg PUBLIC "-//W3C//DTD SVG 1.1//EN" "http://www.w3.org/Graphics/SVG/1.1/DTD/svg11.dtd"><svg t="1644202309690" class="icon" viewBox="0 0 1024 1024" version="1.1" xmlns="http://www.w3.org/2000/svg" p-id="3596" xmlns:xlink="http://www.w3.org/1999/xlink" width="1024" height="1024"><defs><style type="text/css"></style></defs><path d="M318.775673 166.700504a41.716865 41.716865 0 0 0 41.661213-41.516518v-83.033034A41.483126 41.483126 0 0 0 339.789932 5.676521a41.805908 41.805908 0 0 0-42.039648 0 41.483126 41.483126 0 0 0-20.646954 36.485561v83.033035a41.727995 41.727995 0 0 0 41.672343 41.516517zM675.984678 0a41.716865 41.716865 0 0 0-41.672343 41.516517v83.033035a41.483126 41.483126 0 0 0 20.646954 36.47443c12.989216 7.568695 29.050432 7.568695 42.039647 0a41.483126 41.483126 0 0 0 20.646955-36.47443V41.516517A41.716865 41.716865 0 0 0 675.984678 0z m77.389904 0v83.366947h59.102603c32.801388 0.033391 59.391994 26.44591 59.436515 59.046951v262.422232h83.878947V142.413898C955.792647 63.755124 891.625698 0 812.477185 0h-59.102603zM121.388564 868.006862v-723.923399c0.033391-32.979475 26.156519-59.703646 58.390255-59.748168h58.089733V0h-58.089733C102.010479 0 38.956573 64.511993 38.956573 144.083463v723.923399c0 38.210778 14.836868 74.863296 41.249387 101.887989 26.401388 27.013562 62.219124 42.195474 99.572859 42.195474h180.669197v-84.335295H179.778819c-32.233736-0.033391-58.356863-26.768693-58.379124-59.748168zM408.086272 0h178.598937v83.344687H408.075142V0z m347.403093 1023.999889c-5.854608 0-20.435476-0.77913-30.820171-8.080695l-163.728678-115.211118H476.271308c-24.509215-0.033391-44.365908-20.001389-44.399299-44.633039V679.947057c0.055652-24.631649 19.901215-44.588517 44.41043-44.66643h84.635817l163.728677-115.211118A42.406952 42.406952 0 0 1 749.645887 511.999944h4.051478c30.063301 0 47.304343 16.272694 47.304343 44.644169v422.700476a44.710952 44.710952 0 0 1-12.978086 31.57704A44.243473 44.243473 0 0 1 756.613539 1023.999889h-1.135305z m134.722768-107.163815c-17.919998 0-33.480344-12.543999-37.587474-30.319301-4.11826-17.764172 4.318608-36.073735 20.346432-44.221212 0.723478-0.445217 29.462258-17.508172 29.462258-70.255297 0-47.716169-29.228519-64.69008-32.567649-66.48208-15.949911-8.191999-24.297736-26.479301-20.179476-44.187821 4.11826-17.71965 19.611824-30.252518 37.47617-30.29704 5.631999-0.01113 11.197216 1.257739 16.283824 3.706434 3.161043 1.513739 76.176687 37.965909 76.176688 137.260507 0 102.366598-69.153384 139.097028-72.091819 140.610767a38.310952 38.310952 0 0 1-17.285563 4.185043h-0.033391zM260.463332 238.135626h438.093865c28.605214 0 42.907821 13.657042 42.907822 40.959996v1.435826c0 27.302954-14.302607 40.959996-42.896691 40.959995h-438.093866c-28.605214 0-42.907821-13.657042-42.907821-40.959995v-1.435826c0-27.302954 14.291477-40.959996 42.896691-40.959996z m-0.478609 214.327629h260.452146c28.282432 0 42.429213 13.657042 42.429212 40.959996v1.435826c0 27.302954-14.135651 40.959996-42.418082 40.959995H259.984723c-28.282432 0-42.418082-13.657042-42.418082-40.959995v-1.446957c0-27.291823 14.135651-40.948865 42.406952-40.948865z" fill="#2FC97C" p-id="3597"></path></svg>